<svg class="main-svg" xmlns="http://www.w3.org/2000/svg" xmlns:xlink="http://www.w3.org/1999/xlink" width="600" height="500" viewBox="0 0 600 500"><rect x="0" y="0" width="600" height="500" style="fill: rgb(0, 0, 0); fill-opacity: 0;"/><defs id="defs-10de76"><g class="clips"><clipPath id="clip10de76xyplot" class="plotclip"><rect width="360" height="320"/></clipPath><clipPath class="axesclip" id="clip10de76x"><rect x="80" y="0" width="360" height="500"/></clipPath><clipPath class="axesclip" id="clip10de76y"><rect x="0" y="100" width="600" height="320"/></clipPath><clipPath class="axesclip" id="clip10de76xy"><rect x="80" y="100" width="360" height="320"/></clipPath></g><g class="gradients"/></defs><g class="bglayer"><rect class="bg" x="80" y="100" width="360" height="320" style="fill: rgb(0, 0, 0); fill-opacity: 0; stroke-width: 0;"/></g><g class="layer-below"><g class="imagelayer"/><g class="shapelayer"/></g><g class="cartesianlayer"><g class="subplot xy"><g class="layer-subplot"><g class="shapelayer"/><g class="imagelayer"/></g><g class="gridlayer"><g class="x"><path class="xgrid crisp" transform="translate(108,0)" d="M0,100v320" style="stroke: rgb(223, 223, 223); stroke-opacity: 1; stroke-width: 1.5px;"/><path class="xgrid crisp" transform="translate(184,0)" d="M0,100v320" style="stroke: rgb(223, 223, 223); stroke-opacity: 1; stroke-width: 1.5px;"/><path class="xgrid crisp" transform="translate(260,0)" d="M0,100v320" style="stroke: rgb(223, 223, 223); stroke-opacity: 1; stroke-width: 1.5px;"/><path class="xgrid crisp" transform="translate(336,0)" d="M0,100v320" style="stroke: rgb(223, 223, 223); stroke-opacity: 1; stroke-width: 1.5px;"/><path class="xgrid crisp" transform="translate(412,0)" d="M0,100v320" style="stroke: rgb(223, 223, 223); stroke-opacity: 1; stroke-width: 1.5px;"/></g><g class="y"><path class="ygrid crisp" transform="translate(0,394)" d="M80,0h360" style="stroke: rgb(223, 223, 223); stroke-opacity: 1; stroke-width: 1.5px;"/><path class="ygrid crisp" transform="translate(0,316.38)" d="M80,0h360" style="stroke: rgb(223, 223, 223); stroke-opacity: 1; stroke-width: 1.5px;"/><path class="ygrid crisp" transform="translate(0,238.77)" d="M80,0h360" style="stroke: rgb(223, 223, 223); stroke-opacity: 1; stroke-width: 1.5px;"/><path class="ygrid crisp" transform="translate(0,161.15)" d="M80,0h360" style="stroke: rgb(223, 223, 223); stroke-opacity: 1; stroke-width: 1.5px;"/></g></g><g class="zerolinelayer"/><path class="xlines-below"/><path class="ylines-below"/><g class="overlines-below"/><g class="xaxislayer-below"/><g class="yaxislayer-below"/><g class="overaxes-below"/><g class="plot" transform="translate(80, 100)" clip-path="url('#clip10de76xyplot')"><g class="scatterlayer mlayer"><g class="trace scatter traceb63700" style="stroke-miterlimit: 2; opacity: 1;"><g class="fills"/><g class="errorbars"/><g class="lines"><path class="js-line" d="M28,276.27Q55.32,298.76 66,294C84.82,285.62 91.27,210.82 104,169.61Q116.6,128.83 142,48.04" style="vector-effect: non-scaling-stroke; fill: none; stroke: rgb(102, 194, 165); stroke-opacity: 1; stroke-width: 3px; opacity: 1;"/></g><g class="points"><path class="point" transform="translate(28,276.27)" d="M8,0A8,8 0 1,1 0,-8A8,8 0 0,1 8,0Z" style="opacity: 0.5; stroke-width: 2px; fill: rgb(102, 194, 165); fill-opacity: 1; stroke: rgb(128, 128, 128); stroke-opacity: 1;"/><path class="point" transform="translate(66,294)" d="M8,0A8,8 0 1,1 0,-8A8,8 0 0,1 8,0Z" style="opacity: 0.5; stroke-width: 2px; fill: rgb(102, 194, 165); fill-opacity: 1; stroke: rgb(128, 128, 128); stroke-opacity: 1;"/><path class="point" transform="translate(104,169.61)" d="M8,0A8,8 0 1,1 0,-8A8,8 0 0,1 8,0Z" style="opacity: 0.5; stroke-width: 2px; fill: rgb(102, 194, 165); fill-opacity: 1; stroke: rgb(128, 128, 128); stroke-opacity: 1;"/><path class="point" transform="translate(142,48.04)" d="M8,0A8,8 0 1,1 0,-8A8,8 0 0,1 8,0Z" style="opacity: 0.5; stroke-width: 2px; fill: rgb(102, 194, 165); fill-opacity: 1; stroke: rgb(128, 128, 128); stroke-opacity: 1;"/></g><g class="text"><g class="textpoint" transform="translate(0,3.5)"><text x="28" y="276.27" text-anchor="middle" style="font-family: 'Open Sans', verdana, arial, sans-serif; font-size: 14px; fill: rgb(42, 63, 95); fill-opacity: 1; white-space: pre;">3</text></g><g class="textpoint" transform="translate(0,3.5)"><text x="66" y="294" text-anchor="middle" style="font-family: 'Open Sans', verdana, arial, sans-serif; font-size: 14px; fill: rgb(42, 63, 95); fill-opacity: 1; white-space: pre;">3</text></g><g class="textpoint" transform="translate(0,3.5)"><text x="104" y="169.61" text-anchor="middle" style="font-family: 'Open Sans', verdana, arial, sans-serif; font-size: 14px; fill: rgb(42, 63, 95); fill-opacity: 1; white-space: pre;">3</text></g><g class="textpoint" transform="translate(0,3.5)"><text x="142" y="48.04" text-anchor="middle" style="font-family: 'Open Sans', verdana, arial, sans-serif; font-size: 14px; fill: rgb(42, 63, 95); fill-opacity: 1; white-space: pre;">3</text></g></g></g><g class="trace scatter trace550e14" style="stroke-miterlimit: 2; opacity: 1;"><g class="fills"/><g class="errorbars"/><g class="lines"><path class="js-line" d="M28,293.83Q54.61,294.7 66,287.62C80.84,278.39 92.72,256.44 104,234.4C119.19,204.71 124.28,128.55 142,121.92Q152.79,117.88 180,144.14" style="vector-effect: non-scaling-stroke; fill: none; stroke: rgb(252, 141, 98); stroke-opacity: 1; stroke-width: 3px; opacity: 1;"/></g><g class="points"><path class="point" transform="translate(28,293.83)" d="M8,0A8,8 0 1,1 0,-8A8,8 0 0,1 8,0Z" style="opacity: 0.5; stroke-width: 2px; fill: rgb(252, 141, 98); fill-opacity: 1; stroke: rgb(128, 128, 128); stroke-opacity: 1;"/><path class="point" transform="translate(66,287.62)" d="M8,0A8,8 0 1,1 0,-8A8,8 0 0,1 8,0Z" style="opacity: 0.5; stroke-width: 2px; fill: rgb(252, 141, 98); fill-opacity: 1; stroke: rgb(128, 128, 128); stroke-opacity: 1;"/><path class="point" transform="translate(104,234.4)" d="M8,0A8,8 0 1,1 0,-8A8,8 0 0,1 8,0Z" style="opacity: 0.5; stroke-width: 2px; fill: rgb(252, 141, 98); fill-opacity: 1; stroke: rgb(128, 128, 128); stroke-opacity: 1;"/><path class="point" transform="translate(142,121.92)" d="M8,0A8,8 0 1,1 0,-8A8,8 0 0,1 8,0Z" style="opacity: 0.5; stroke-width: 2px; fill: rgb(252, 141, 98); fill-opacity: 1; stroke: rgb(128, 128, 128); stroke-opacity: 1;"/><path class="point" transform="translate(180,144.14)" d="M8,0A8,8 0 1,1 0,-8A8,8 0 0,1 8,0Z" style="opacity: 0.5; stroke-width: 2px; fill: rgb(252, 141, 98); fill-opacity: 1; stroke: rgb(128, 128, 128); stroke-opacity: 1;"/></g><g class="text"><g class="textpoint" transform="translate(0,3.5)"><text x="28" y="293.83" text-anchor="middle" style="font-family: 'Open Sans', verdana, arial, sans-serif; font-size: 14px; fill: rgb(42, 63, 95); fill-opacity: 1; white-space: pre;">4</text></g><g class="textpoint" transform="translate(0,3.5)"><text x="66" y="287.62" text-anchor="middle" style="font-family: 'Open Sans', verdana, arial, sans-serif; font-size: 14px; fill: rgb(42, 63, 95); fill-opacity: 1; white-space: pre;">4</text></g><g class="textpoint" transform="translate(0,3.5)"><text x="104" y="234.4" text-anchor="middle" style="font-family: 'Open Sans', verdana, arial, sans-serif; font-size: 14px; fill: rgb(42, 63, 95); fill-opacity: 1; white-space: pre;">4</text></g><g class="textpoint" transform="translate(0,3.5)"><text x="142" y="121.92" text-anchor="middle" style="font-family: 'Open Sans', verdana, arial, sans-serif; font-size: 14px; fill: rgb(42, 63, 95); fill-opacity: 1; white-space: pre;">4</text></g><g class="textpoint" transform="translate(0,3.5)"><text x="180" y="144.14" text-anchor="middle" style="font-family: 'Open Sans', verdana, arial, sans-serif; font-size: 14px; fill: rgb(42, 63, 95); fill-opacity: 1; white-space: pre;">4</text></g></g></g><g class="trace scatter trace50b969" style="stroke-miterlimit: 2; opacity: 1;"><g class="fills"/><g class="errorbars"/><g class="lines"><path class="js-line" d="M28,293.97Q53.9,295.73 66,291.49C79.35,286.81 92.72,277.95 104,264.97C119.19,247.48 128.66,213.01 142,189.95C154.11,169 167.79,131.35 180,131.91Q193.2,132.52 218,203.63" style="vector-effect: non-scaling-stroke; fill: none; stroke: rgb(141, 160, 203); stroke-opacity: 1; stroke-width: 3px; opacity: 1;"/></g><g class="points"><path class="point" transform="translate(28,293.97)" d="M8,0A8,8 0 1,1 0,-8A8,8 0 0,1 8,0Z" style="opacity: 0.5; stroke-width: 2px; fill: rgb(141, 160, 203); fill-opacity: 1; stroke: rgb(128, 128, 128); stroke-opacity: 1;"/><path class="point" transform="translate(66,291.49)" d="M8,0A8,8 0 1,1 0,-8A8,8 0 0,1 8,0Z" style="opacity: 0.5; stroke-width: 2px; fill: rgb(141, 160, 203); fill-opacity: 1; stroke: rgb(128, 128, 128); stroke-opacity: 1;"/><path class="point" transform="translate(104,264.97)" d="M8,0A8,8 0 1,1 0,-8A8,8 0 0,1 8,0Z" style="opacity: 0.5; stroke-width: 2px; fill: rgb(141, 160, 203); fill-opacity: 1; stroke: rgb(128, 128, 128); stroke-opacity: 1;"/><path class="point" transform="translate(142,189.95)" d="M8,0A8,8 0 1,1 0,-8A8,8 0 0,1 8,0Z" style="opacity: 0.5; stroke-width: 2px; fill: rgb(141, 160, 203); fill-opacity: 1; stroke: rgb(128, 128, 128); stroke-opacity: 1;"/><path class="point" transform="translate(180,131.91)" d="M8,0A8,8 0 1,1 0,-8A8,8 0 0,1 8,0Z" style="opacity: 0.5; stroke-width: 2px; fill: rgb(141, 160, 203); fill-opacity: 1; stroke: rgb(128, 128, 128); stroke-opacity: 1;"/><path class="point" transform="translate(218,203.63)" d="M8,0A8,8 0 1,1 0,-8A8,8 0 0,1 8,0Z" style="opacity: 0.5; stroke-width: 2px; fill: rgb(141, 160, 203); fill-opacity: 1; stroke: rgb(128, 128, 128); stroke-opacity: 1;"/></g><g class="text"><g class="textpoint" transform="translate(0,3.5)"><text x="28" y="293.97" text-anchor="middle" style="font-family: 'Open Sans', verdana, arial, sans-serif; font-size: 14px; fill: rgb(42, 63, 95); fill-opacity: 1; white-space: pre;">5</text></g><g class="textpoint" transform="translate(0,3.5)"><text x="66" y="291.49" text-anchor="middle" style="font-family: 'Open Sans', verdana, arial, sans-serif; font-size: 14px; fill: rgb(42, 63, 95); fill-opacity: 1; white-space: pre;">5</text></g><g class="textpoint" transform="translate(0,3.5)"><text x="104" y="264.97" text-anchor="middle" style="font-family: 'Open Sans', verdana, arial, sans-serif; font-size: 14px; fill: rgb(42, 63, 95); fill-opacity: 1; white-space: pre;">5</text></g><g class="textpoint" transform="translate(0,3.5)"><text x="142" y="189.95" text-anchor="middle" style="font-family: 'Open Sans', verdana, arial, sans-serif; font-size: 14px; fill: rgb(42, 63, 95); fill-opacity: 1; white-space: pre;">5</text></g><g class="textpoint" transform="translate(0,3.5)"><text x="180" y="131.91" text-anchor="middle" style="font-family: 'Open Sans', verdana, arial, sans-serif; font-size: 14px; fill: rgb(42, 63, 95); fill-opacity: 1; white-space: pre;">5</text></g><g class="textpoint" transform="translate(0,3.5)"><text x="218" y="203.63" text-anchor="middle" style="font-family: 'Open Sans', verdana, arial, sans-serif; font-size: 14px; fill: rgb(42, 63, 95); fill-opacity: 1; white-space: pre;">5</text></g></g></g><g class="trace scatter trace35eddf" style="stroke-miterlimit: 2; opacity: 1;"><g class="fills"/><g class="errorbars"/><g class="lines"><path class="js-line" d="M28,293.98Q53.33,277.81 66,277.81C78.67,277.81 92.86,297.98 104,294C119.69,288.4 131.11,252.45 142,221.37C158.97,172.94 168.17,25.7 180,26C193.8,26.35 193.38,284.43 218,294Q228.49,298.08 256,262.76" style="vector-effect: non-scaling-stroke; fill: none; stroke: rgb(231, 138, 195); stroke-opacity: 1; stroke-width: 3px; opacity: 1;"/></g><g class="points"><path class="point" transform="translate(28,293.98)" d="M8,0A8,8 0 1,1 0,-8A8,8 0 0,1 8,0Z" style="opacity: 0.5; stroke-width: 2px; fill: rgb(231, 138, 195); fill-opacity: 1; stroke: rgb(128, 128, 128); stroke-opacity: 1;"/><path class="point" transform="translate(66,277.81)" d="M8,0A8,8 0 1,1 0,-8A8,8 0 0,1 8,0Z" style="opacity: 0.5; stroke-width: 2px; fill: rgb(231, 138, 195); fill-opacity: 1; stroke: rgb(128, 128, 128); stroke-opacity: 1;"/><path class="point" transform="translate(104,294)" d="M8,0A8,8 0 1,1 0,-8A8,8 0 0,1 8,0Z" style="opacity: 0.5; stroke-width: 2px; fill: rgb(231, 138, 195); fill-opacity: 1; stroke: rgb(128, 128, 128); stroke-opacity: 1;"/><path class="point" transform="translate(142,221.37)" d="M8,0A8,8 0 1,1 0,-8A8,8 0 0,1 8,0Z" style="opacity: 0.5; stroke-width: 2px; fill: rgb(231, 138, 195); fill-opacity: 1; stroke: rgb(128, 128, 128); stroke-opacity: 1;"/><path class="point" transform="translate(180,26)" d="M8,0A8,8 0 1,1 0,-8A8,8 0 0,1 8,0Z" style="opacity: 0.5; stroke-width: 2px; fill: rgb(231, 138, 195); fill-opacity: 1; stroke: rgb(128, 128, 128); stroke-opacity: 1;"/><path class="point" transform="translate(218,294)" d="M8,0A8,8 0 1,1 0,-8A8,8 0 0,1 8,0Z" style="opacity: 0.5; stroke-width: 2px; fill: rgb(231, 138, 195); fill-opacity: 1; stroke: rgb(128, 128, 128); stroke-opacity: 1;"/><path class="point" transform="translate(256,262.76)" d="M8,0A8,8 0 1,1 0,-8A8,8 0 0,1 8,0Z" style="opacity: 0.5; stroke-width: 2px; fill: rgb(231, 138, 195); fill-opacity: 1; stroke: rgb(128, 128, 128); stroke-opacity: 1;"/></g><g class="text"><g class="textpoint" transform="translate(0,3.5)"><text x="28" y="293.98" text-anchor="middle" style="font-family: 'Open Sans', verdana, arial, sans-serif; font-size: 14px; fill: rgb(42, 63, 95); fill-opacity: 1; white-space: pre;">6</text></g><g class="textpoint" transform="translate(0,3.5)"><text x="66" y="277.81" text-anchor="middle" style="font-family: 'Open Sans', verdana, arial, sans-serif; font-size: 14px; fill: rgb(42, 63, 95); fill-opacity: 1; white-space: pre;">6</text></g><g class="textpoint" transform="translate(0,3.5)"><text x="104" y="294" text-anchor="middle" style="font-family: 'Open Sans', verdana, arial, sans-serif; font-size: 14px; fill: rgb(42, 63, 95); fill-opacity: 1; white-space: pre;">6</text></g><g class="textpoint" transform="translate(0,3.5)"><text x="142" y="221.37" text-anchor="middle" style="font-family: 'Open Sans', verdana, arial, sans-serif; font-size: 14px; fill: rgb(42, 63, 95); fill-opacity: 1; white-space: pre;">6</text></g><g class="textpoint" transform="translate(0,3.5)"><text x="180" y="26" text-anchor="middle" style="font-family: 'Open Sans', verdana, arial, sans-serif; font-size: 14px; fill: rgb(42, 63, 95); fill-opacity: 1; white-space: pre;">6</text></g><g class="textpoint" transform="translate(0,3.5)"><text x="218" y="294" text-anchor="middle" style="font-family: 'Open Sans', verdana, arial, sans-serif; font-size: 14px; fill: rgb(42, 63, 95); fill-opacity: 1; white-space: pre;">6</text></g><g class="textpoint" transform="translate(0,3.5)"><text x="256" y="262.76" text-anchor="middle" style="font-family: 'Open Sans', verdana, arial, sans-serif; font-size: 14px; fill: rgb(42, 63, 95); fill-opacity: 1; white-space: pre;">6</text></g></g></g><g class="trace scatter trace66280d" style="stroke-miterlimit: 2; opacity: 1;"><g class="fills"/><g class="errorbars"/><g class="lines"><path class="js-line" d="M28,293.6Q54.07,293.06 66,287.51C79.63,281.17 91.59,254.12 104,254.68C116.95,255.26 130.91,296.39 142,294C157.92,290.57 162.95,209.83 180,187.8C190.88,173.74 206.2,159.98 218,161.96C231.87,164.29 243.62,195.1 256,212.88Q268.98,231.52 294,271.48" style="vector-effect: non-scaling-stroke; fill: none; stroke: rgb(166, 216, 84); stroke-opacity: 1; stroke-width: 3px; opacity: 1;"/></g><g class="points"><path class="point" transform="translate(28,293.6)" d="M8,0A8,8 0 1,1 0,-8A8,8 0 0,1 8,0Z" style="opacity: 0.5; stroke-width: 2px; fill: rgb(166, 216, 84); fill-opacity: 1; stroke: rgb(128, 128, 128); stroke-opacity: 1;"/><path class="point" transform="translate(66,287.51)" d="M8,0A8,8 0 1,1 0,-8A8,8 0 0,1 8,0Z" style="opacity: 0.5; stroke-width: 2px; fill: rgb(166, 216, 84); fill-opacity: 1; stroke: rgb(128, 128, 128); stroke-opacity: 1;"/><path class="point" transform="translate(104,254.68)" d="M8,0A8,8 0 1,1 0,-8A8,8 0 0,1 8,0Z" style="opacity: 0.5; stroke-width: 2px; fill: rgb(166, 216, 84); fill-opacity: 1; stroke: rgb(128, 128, 128); stroke-opacity: 1;"/><path class="point" transform="translate(142,294)" d="M8,0A8,8 0 1,1 0,-8A8,8 0 0,1 8,0Z" style="opacity: 0.5; stroke-width: 2px; fill: rgb(166, 216, 84); fill-opacity: 1; stroke: rgb(128, 128, 128); stroke-opacity: 1;"/><path class="point" transform="translate(180,187.8)" d="M8,0A8,8 0 1,1 0,-8A8,8 0 0,1 8,0Z" style="opacity: 0.5; stroke-width: 2px; fill: rgb(166, 216, 84); fill-opacity: 1; stroke: rgb(128, 128, 128); stroke-opacity: 1;"/><path class="point" transform="translate(218,161.96)" d="M8,0A8,8 0 1,1 0,-8A8,8 0 0,1 8,0Z" style="opacity: 0.5; stroke-width: 2px; fill: rgb(166, 216, 84); fill-opacity: 1; stroke: rgb(128, 128, 128); stroke-opacity: 1;"/><path class="point" transform="translate(256,212.88)" d="M8,0A8,8 0 1,1 0,-8A8,8 0 0,1 8,0Z" style="opacity: 0.5; stroke-width: 2px; fill: rgb(166, 216, 84); fill-opacity: 1; stroke: rgb(128, 128, 128); stroke-opacity: 1;"/><path class="point" transform="translate(294,271.48)" d="M8,0A8,8 0 1,1 0,-8A8,8 0 0,1 8,0Z" style="opacity: 0.5; stroke-width: 2px; fill: rgb(166, 216, 84); fill-opacity: 1; stroke: rgb(128, 128, 128); stroke-opacity: 1;"/></g><g class="text"><g class="textpoint" transform="translate(0,3.5)"><text x="28" y="293.6" text-anchor="middle" style="font-family: 'Open Sans', verdana, arial, sans-serif; font-size: 14px; fill: rgb(42, 63, 95); fill-opacity: 1; white-space: pre;">7</text></g><g class="textpoint" transform="translate(0,3.5)"><text x="66" y="287.51" text-anchor="middle" style="font-family: 'Open Sans', verdana, arial, sans-serif; font-size: 14px; fill: rgb(42, 63, 95); fill-opacity: 1; white-space: pre;">7</text></g><g class="textpoint" transform="translate(0,3.5)"><text x="104" y="254.68" text-anchor="middle" style="font-family: 'Open Sans', verdana, arial, sans-serif; font-size: 14px; fill: rgb(42, 63, 95); fill-opacity: 1; white-space: pre;">7</text></g><g class="textpoint" transform="translate(0,3.5)"><text x="142" y="294" text-anchor="middle" style="font-family: 'Open Sans', verdana, arial, sans-serif; font-size: 14px; fill: rgb(42, 63, 95); fill-opacity: 1; white-space: pre;">7</text></g><g class="textpoint" transform="translate(0,3.5)"><text x="180" y="187.8" text-anchor="middle" style="font-family: 'Open Sans', verdana, arial, sans-serif; font-size: 14px; fill: rgb(42, 63, 95); fill-opacity: 1; white-space: pre;">7</text></g><g class="textpoint" transform="translate(0,3.5)"><text x="218" y="161.96" text-anchor="middle" style="font-family: 'Open Sans', verdana, arial, sans-serif; font-size: 14px; fill: rgb(42, 63, 95); fill-opacity: 1; white-space: pre;">7</text></g><g class="textpoint" transform="translate(0,3.5)"><text x="256" y="212.88" text-anchor="middle" style="font-family: 'Open Sans', verdana, arial, sans-serif; font-size: 14px; fill: rgb(42, 63, 95); fill-opacity: 1; white-space: pre;">7</text></g><g class="textpoint" transform="translate(0,3.5)"><text x="294" y="271.48" text-anchor="middle" style="font-family: 'Open Sans', verdana, arial, sans-serif; font-size: 14px; fill: rgb(42, 63, 95); fill-opacity: 1; white-space: pre;">7</text></g></g></g><g class="trace scatter tracebe3e08" style="stroke-miterlimit: 2; opacity: 1;"><g class="fills"/><g class="errorbars"/><g class="lines"><path class="js-line" d="M28,294Q53.35,294.58 66,293.85C78.69,293.12 91.86,294.07 104,289.59C117.3,284.68 130.53,276.03 142,263.84C156.62,248.3 166.46,218.55 180,199.64C191.98,182.9 205.41,155.14 218,155.27C230.75,155.4 244.03,184.15 256,201.55C269.56,221.26 279.1,252.82 294,268.29Q305.37,280.1 332,291.88" style="vector-effect: non-scaling-stroke; fill: none; stroke: rgb(255, 217, 47); stroke-opacity: 1; stroke-width: 3px; opacity: 1;"/></g><g class="points"><path class="point" transform="translate(28,294)" d="M8,0A8,8 0 1,1 0,-8A8,8 0 0,1 8,0Z" style="opacity: 0.5; stroke-width: 2px; fill: rgb(255, 217, 47); fill-opacity: 1; stroke: rgb(128, 128, 128); stroke-opacity: 1;"/><path class="point" transform="translate(66,293.85)" d="M8,0A8,8 0 1,1 0,-8A8,8 0 0,1 8,0Z" style="opacity: 0.5; stroke-width: 2px; fill: rgb(255, 217, 47); fill-opacity: 1; stroke: rgb(128, 128, 128); stroke-opacity: 1;"/><path class="point" transform="translate(104,289.59)" d="M8,0A8,8 0 1,1 0,-8A8,8 0 0,1 8,0Z" style="opacity: 0.5; stroke-width: 2px; fill: rgb(255, 217, 47); fill-opacity: 1; stroke: rgb(128, 128, 128); stroke-opacity: 1;"/><path class="point" transform="translate(142,263.84)" d="M8,0A8,8 0 1,1 0,-8A8,8 0 0,1 8,0Z" style="opacity: 0.5; stroke-width: 2px; fill: rgb(255, 217, 47); fill-opacity: 1; stroke: rgb(128, 128, 128); stroke-opacity: 1;"/><path class="point" transform="translate(180,199.64)" d="M8,0A8,8 0 1,1 0,-8A8,8 0 0,1 8,0Z" style="opacity: 0.5; stroke-width: 2px; fill: rgb(255, 217, 47); fill-opacity: 1; stroke: rgb(128, 128, 128); stroke-opacity: 1;"/><path class="point" transform="translate(218,155.27)" d="M8,0A8,8 0 1,1 0,-8A8,8 0 0,1 8,0Z" style="opacity: 0.5; stroke-width: 2px; fill: rgb(255, 217, 47); fill-opacity: 1; stroke: rgb(128, 128, 128); stroke-opacity: 1;"/><path class="point" transform="translate(256,201.55)" d="M8,0A8,8 0 1,1 0,-8A8,8 0 0,1 8,0Z" style="opacity: 0.5; stroke-width: 2px; fill: rgb(255, 217, 47); fill-opacity: 1; stroke: rgb(128, 128, 128); stroke-opacity: 1;"/><path class="point" transform="translate(294,268.29)" d="M8,0A8,8 0 1,1 0,-8A8,8 0 0,1 8,0Z" style="opacity: 0.5; stroke-width: 2px; fill: rgb(255, 217, 47); fill-opacity: 1; stroke: rgb(128, 128, 128); stroke-opacity: 1;"/><path class="point" transform="translate(332,291.88)" d="M8,0A8,8 0 1,1 0,-8A8,8 0 0,1 8,0Z" style="opacity: 0.5; stroke-width: 2px; fill: rgb(255, 217, 47); fill-opacity: 1; stroke: rgb(128, 128, 128); stroke-opacity: 1;"/></g><g class="text"><g class="textpoint" transform="translate(0,3.5)"><text x="28" y="294" text-anchor="middle" style="font-family: 'Open Sans', verdana, arial, sans-serif; font-size: 14px; fill: rgb(42, 63, 95); fill-opacity: 1; white-space: pre;">8</text></g><g class="textpoint" transform="translate(0,3.5)"><text x="66" y="293.85" text-anchor="middle" style="font-family: 'Open Sans', verdana, arial, sans-serif; font-size: 14px; fill: rgb(42, 63, 95); fill-opacity: 1; white-space: pre;">8</text></g><g class="textpoint" transform="translate(0,3.5)"><text x="104" y="289.59" text-anchor="middle" style="font-family: 'Open Sans', verdana, arial, sans-serif; font-size: 14px; fill: rgb(42, 63, 95); fill-opacity: 1; white-space: pre;">8</text></g><g class="textpoint" transform="translate(0,3.5)"><text x="142" y="263.84" text-anchor="middle" style="font-family: 'Open Sans', verdana, arial, sans-serif; font-size: 14px; fill: rgb(42, 63, 95); fill-opacity: 1; white-space: pre;">8</text></g><g class="textpoint" transform="translate(0,3.5)"><text x="180" y="199.64" text-anchor="middle" style="font-family: 'Open Sans', verdana, arial, sans-serif; font-size: 14px; fill: rgb(42, 63, 95); fill-opacity: 1; white-space: pre;">8</text></g><g class="textpoint" transform="translate(0,3.5)"><text x="218" y="155.27" text-anchor="middle" style="font-family: 'Open Sans', verdana, arial, sans-serif; font-size: 14px; fill: rgb(42, 63, 95); fill-opacity: 1; white-space: pre;">8</text></g><g class="textpoint" transform="translate(0,3.5)"><text x="256" y="201.55" text-anchor="middle" style="font-family: 'Open Sans', verdana, arial, sans-serif; font-size: 14px; fill: rgb(42, 63, 95); fill-opacity: 1; white-space: pre;">8</text></g><g class="textpoint" transform="translate(0,3.5)"><text x="294" y="268.29" text-anchor="middle" style="font-family: 'Open Sans', verdana, arial, sans-serif; font-size: 14px; fill: rgb(42, 63, 95); fill-opacity: 1; white-space: pre;">8</text></g><g class="textpoint" transform="translate(0,3.5)"><text x="332" y="291.88" text-anchor="middle" style="font-family: 'Open Sans', verdana, arial, sans-serif; font-size: 14px; fill: rgb(42, 63, 95); fill-opacity: 1; white-space: pre;">8</text></g></g></g></g></g><g class="overplot"/><path class="xlines-above crisp" d="M78,421H440" style="fill: none; stroke-width: 2px; stroke: rgb(175, 175, 175); stroke-opacity: 1;"/><path class="ylines-above crisp" d="M79,100V420" style="fill: none; stroke-width: 2px; stroke: rgb(175, 175, 175); stroke-opacity: 1;"/><g class="overlines-above"/><g class="xaxislayer-above"><g class="xtick"><text text-anchor="middle" x="0" y="438.8" transform="translate(108,0)" style="font-family: 'Open Sans', verdana, arial, sans-serif; font-size: 14px; fill: rgb(42, 63, 95); fill-opacity: 1; white-space: pre;">0</text></g><g class="xtick"><text text-anchor="middle" x="0" y="438.8" transform="translate(184,0)" style="font-family: 'Open Sans', verdana, arial, sans-serif; font-size: 14px; fill: rgb(42, 63, 95); fill-opacity: 1; white-space: pre;">2</text></g><g class="xtick"><text text-anchor="middle" x="0" y="438.8" transform="translate(260,0)" style="font-family: 'Open Sans', verdana, arial, sans-serif; font-size: 14px; fill: rgb(42, 63, 95); fill-opacity: 1; white-space: pre;">4</text></g><g class="xtick"><text text-anchor="middle" x="0" y="438.8" transform="translate(336,0)" style="font-family: 'Open Sans', verdana, arial, sans-serif; font-size: 14px; fill: rgb(42, 63, 95); fill-opacity: 1; white-space: pre;">6</text></g><g class="xtick"><text text-anchor="middle" x="0" y="438.8" transform="translate(412,0)" style="font-family: 'Open Sans', verdana, arial, sans-serif; font-size: 14px; fill: rgb(42, 63, 95); fill-opacity: 1; white-space: pre;">8</text></g></g><g class="yaxislayer-above"><g class="ytick"><text text-anchor="end" x="75.2" y="4.8999999999999995" transform="translate(0,394)" style="font-family: 'Open Sans', verdana, arial, sans-serif; font-size: 14px; fill: rgb(42, 63, 95); fill-opacity: 1; white-space: pre;">0</text></g><g class="ytick"><text text-anchor="end" x="75.2" y="4.8999999999999995" transform="translate(0,316.38)" style="font-family: 'Open Sans', verdana, arial, sans-serif; font-size: 14px; fill: rgb(42, 63, 95); fill-opacity: 1; white-space: pre;">0.2</text></g><g class="ytick"><text text-anchor="end" x="75.2" y="4.8999999999999995" transform="translate(0,238.77)" style="font-family: 'Open Sans', verdana, arial, sans-serif; font-size: 14px; fill: rgb(42, 63, 95); fill-opacity: 1; white-space: pre;">0.4</text></g><g class="ytick"><text text-anchor="end" x="75.2" y="4.8999999999999995" transform="translate(0,161.15)" style="font-family: 'Open Sans', verdana, arial, sans-serif; font-size: 14px; fill: rgb(42, 63, 95); fill-opacity: 1; white-space: pre;">0.6</text></g></g><g class="overaxes-above"/></g></g><g class="polarlayer"/><g class="ternarylayer"/><g class="geolayer"/><g class="funnelarealayer"/><g class="pielayer"/><g class="sunburstlayer"/><g class="glimages"/><defs id="topdefs-10de76"><g class="clips"/><clipPath id="legend10de76"><rect width="141" height="138" x="0" y="0"/></clipPath></defs><g class="layer-above"><g class="imagelayer"/><g class="shapelayer"/></g><g class="infolayer"><g class="legend" pointer-events="all" transform="translate(447.2, 100)"><rect class="bg" shape-rendering="crispEdges" width="141" height="138" x="0" y="0" style="stroke: rgb(68, 68, 68); stroke-opacity: 1; fill: rgb(0, 0, 0); fill-opacity: 0; stroke-width: 0px;"/><g class="scrollbox" transform="translate(0, 0)" clip-path="url('#legend10de76')"><g class="groups"><g class="traces" transform="translate(0, 15.6)" style="opacity: 1;"><text class="legendtext user-select-none" text-anchor="start" x="40" y="5.46" style="font-family: 'Open Sans', verdana, arial, sans-serif; font-size: 14px; fill: rgb(42, 63, 95); fill-opacity: 1; white-space: pre;">Target load:3</text><g class="layers" style="opacity: 1;"><g class="legendfill"/><g class="legendlines"><path class="js-line" d="M5,0h30" style="fill: none; stroke: rgb(102, 194, 165); stroke-opacity: 1; stroke-width: 3px;"/></g><g class="legendsymbols"><g class="legendpoints"><path class="scatterpts" transform="translate(20,0)" d="M8,0A8,8 0 1,1 0,-8A8,8 0 0,1 8,0Z" style="opacity: 0.5; stroke-width: 2px; fill: rgb(102, 194, 165); fill-opacity: 1; stroke: rgb(128, 128, 128); stroke-opacity: 1;"/><g class="pointtext" transform="translate(0,2.5)"><text transform="translate(20,0)" x="0" y="0" text-anchor="middle" style="font-family: 'Open Sans', verdana, arial, sans-serif; font-size: 10px; fill: rgb(42, 63, 95); fill-opacity: 1; white-space: pre;">Aa</text></g></g></g></g><rect class="legendtoggle" pointer-events="all" x="0" y="-10.6" width="181" height="21.2" style="cursor: pointer; fill: rgb(0, 0, 0); fill-opacity: 0;"/></g><g class="traces" transform="translate(0, 36.8)" style="opacity: 1;"><text class="legendtext user-select-none" text-anchor="start" x="40" y="5.46" style="font-family: 'Open Sans', verdana, arial, sans-serif; font-size: 14px; fill: rgb(42, 63, 95); fill-opacity: 1; white-space: pre;">Target load:4</text><g class="layers" style="opacity: 1;"><g class="legendfill"/><g class="legendlines"><path class="js-line" d="M5,0h30" style="fill: none; stroke: rgb(252, 141, 98); stroke-opacity: 1; stroke-width: 3px;"/></g><g class="legendsymbols"><g class="legendpoints"><path class="scatterpts" transform="translate(20,0)" d="M8,0A8,8 0 1,1 0,-8A8,8 0 0,1 8,0Z" style="opacity: 0.5; stroke-width: 2px; fill: rgb(252, 141, 98); fill-opacity: 1; stroke: rgb(128, 128, 128); stroke-opacity: 1;"/><g class="pointtext" transform="translate(0,2.5)"><text transform="translate(20,0)" x="0" y="0" text-anchor="middle" style="font-family: 'Open Sans', verdana, arial, sans-serif; font-size: 10px; fill: rgb(42, 63, 95); fill-opacity: 1; white-space: pre;">Aa</text></g></g></g></g><rect class="legendtoggle" pointer-events="all" x="0" y="-10.6" width="181" height="21.2" style="cursor: pointer; fill: rgb(0, 0, 0); fill-opacity: 0;"/></g><g class="traces" transform="translate(0, 58)" style="opacity: 1;"><text class="legendtext user-select-none" text-anchor="start" x="40" y="5.46" style="font-family: 'Open Sans', verdana, arial, sans-serif; font-size: 14px; fill: rgb(42, 63, 95); fill-opacity: 1; white-space: pre;">Target load:5</text><g class="layers" style="opacity: 1;"><g class="legendfill"/><g class="legendlines"><path class="js-line" d="M5,0h30" style="fill: none; stroke: rgb(141, 160, 203); stroke-opacity: 1; stroke-width: 3px;"/></g><g class="legendsymbols"><g class="legendpoints"><path class="scatterpts" transform="translate(20,0)" d="M8,0A8,8 0 1,1 0,-8A8,8 0 0,1 8,0Z" style="opacity: 0.5; stroke-width: 2px; fill: rgb(141, 160, 203); fill-opacity: 1; stroke: rgb(128, 128, 128); stroke-opacity: 1;"/><g class="pointtext" transform="translate(0,2.5)"><text transform="translate(20,0)" x="0" y="0" text-anchor="middle" style="font-family: 'Open Sans', verdana, arial, sans-serif; font-size: 10px; fill: rgb(42, 63, 95); fill-opacity: 1; white-space: pre;">Aa</text></g></g></g></g><rect class="legendtoggle" pointer-events="all" x="0" y="-10.6" width="181" height="21.2" style="cursor: pointer; fill: rgb(0, 0, 0); fill-opacity: 0;"/></g><g class="traces" transform="translate(0, 79.19999999999999)" style="opacity: 1;"><text class="legendtext user-select-none" text-anchor="start" x="40" y="5.46" style="font-family: 'Open Sans', verdana, arial, sans-serif; font-size: 14px; fill: rgb(42, 63, 95); fill-opacity: 1; white-space: pre;">Target load:6</text><g class="layers" style="opacity: 1;"><g class="legendfill"/><g class="legendlines"><path class="js-line" d="M5,0h30" style="fill: none; stroke: rgb(231, 138, 195); stroke-opacity: 1; stroke-width: 3px;"/></g><g class="legendsymbols"><g class="legendpoints"><path class="scatterpts" transform="translate(20,0)" d="M8,0A8,8 0 1,1 0,-8A8,8 0 0,1 8,0Z" style="opacity: 0.5; stroke-width: 2px; fill: rgb(231, 138, 195); fill-opacity: 1; stroke: rgb(128, 128, 128); stroke-opacity: 1;"/><g class="pointtext" transform="translate(0,2.5)"><text transform="translate(20,0)" x="0" y="0" text-anchor="middle" style="font-family: 'Open Sans', verdana, arial, sans-serif; font-size: 10px; fill: rgb(42, 63, 95); fill-opacity: 1; white-space: pre;">Aa</text></g></g></g></g><rect class="legendtoggle" pointer-events="all" x="0" y="-10.6" width="181" height="21.2" style="cursor: pointer; fill: rgb(0, 0, 0); fill-opacity: 0;"/></g><g class="traces" transform="translate(0, 100.39999999999999)" style="opacity: 1;"><text class="legendtext user-select-none" text-anchor="start" x="40" y="5.46" style="font-family: 'Open Sans', verdana, arial, sans-serif; font-size: 14px; fill: rgb(42, 63, 95); fill-opacity: 1; white-space: pre;">Target load:7</text><g class="layers" style="opacity: 1;"><g class="legendfill"/><g class="legendlines"><path class="js-line" d="M5,0h30" style="fill: none; stroke: rgb(166, 216, 84); stroke-opacity: 1; stroke-width: 3px;"/></g><g class="legendsymbols"><g class="legendpoints"><path class="scatterpts" transform="translate(20,0)" d="M8,0A8,8 0 1,1 0,-8A8,8 0 0,1 8,0Z" style="opacity: 0.5; stroke-width: 2px; fill: rgb(166, 216, 84); fill-opacity: 1; stroke: rgb(128, 128, 128); stroke-opacity: 1;"/><g class="pointtext" transform="translate(0,2.5)"><text transform="translate(20,0)" x="0" y="0" text-anchor="middle" style="font-family: 'Open Sans', verdana, arial, sans-serif; font-size: 10px; fill: rgb(42, 63, 95); fill-opacity: 1; white-space: pre;">Aa</text></g></g></g></g><rect class="legendtoggle" pointer-events="all" x="0" y="-10.6" width="181" height="21.2" style="cursor: pointer; fill: rgb(0, 0, 0); fill-opacity: 0;"/></g><g class="traces" transform="translate(0, 121.6)" style="opacity: 1;"><text class="legendtext user-select-none" text-anchor="start" x="40" y="5.46" style="font-family: 'Open Sans', verdana, arial, sans-serif; font-size: 14px; fill: rgb(42, 63, 95); fill-opacity: 1; white-space: pre;">Target load:8</text><g class="layers" style="opacity: 1;"><g class="legendfill"/><g class="legendlines"><path class="js-line" d="M5,0h30" style="fill: none; stroke: rgb(255, 217, 47); stroke-opacity: 1; stroke-width: 3px;"/></g><g class="legendsymbols"><g class="legendpoints"><path class="scatterpts" transform="translate(20,0)" d="M8,0A8,8 0 1,1 0,-8A8,8 0 0,1 8,0Z" style="opacity: 0.5; stroke-width: 2px; fill: rgb(255, 217, 47); fill-opacity: 1; stroke: rgb(128, 128, 128); stroke-opacity: 1;"/><g class="pointtext" transform="translate(0,2.5)"><text transform="translate(20,0)" x="0" y="0" text-anchor="middle" style="font-family: 'Open Sans', verdana, arial, sans-serif; font-size: 10px; fill: rgb(42, 63, 95); fill-opacity: 1; white-space: pre;">Aa</text></g></g></g></g><rect class="legendtoggle" pointer-events="all" x="0" y="-10.6" width="181" height="21.2" style="cursor: pointer; fill: rgb(0, 0, 0); fill-opacity: 0;"/></g></g></g><rect class="scrollbar" rx="20" ry="3" width="0" height="0" x="0" y="0" style="fill: rgb(128, 139, 164); fill-opacity: 1;"/></g><g class="g-gtitle"/><g class="g-xtitle"><text class="xtitle" x="260" y="482" text-anchor="middle" style="font-family: 'Open Sans', verdana, arial, sans-serif; font-size: 17px; fill: rgb(42, 63, 95); opacity: 1; font-weight: normal; white-space: pre;">num targets chosen</text></g><g class="g-ytitle"><text class="ytitle" transform="rotate(-90,35,260)" x="35" y="260" text-anchor="middle" style="font-family: 'Open Sans', verdana, arial, sans-serif; font-size: 17px; fill: rgb(42, 63, 95); opacity: 1; font-weight: normal; white-space: pre;">average proprtion of targets chosen</text></g></g></svg>