<svg class="main-svg" xmlns="http://www.w3.org/2000/svg" xmlns:xlink="http://www.w3.org/1999/xlink" width="550" height="500" viewBox="0 0 550 500"><rect x="0" y="0" width="550" height="500" style="fill: rgb(255, 255, 255); fill-opacity: 1;"/><defs id="defs-98a209"><g class="clips"><clipPath id="clip98a209xyplot" class="plotclip"><rect width="290" height="220"/></clipPath><clipPath class="axesclip" id="clip98a209x"><rect x="130" y="0" width="290" height="500"/></clipPath><clipPath class="axesclip" id="clip98a209y"><rect x="0" y="150" width="550" height="220"/></clipPath><clipPath class="axesclip" id="clip98a209xy"><rect x="130" y="150" width="290" height="220"/></clipPath></g><g class="gradients"/></defs><g class="bglayer"/><g class="layer-below"><g class="imagelayer"/><g class="shapelayer"/></g><g class="cartesianlayer"><g class="subplot xy"><g class="layer-subplot"><g class="shapelayer"/><g class="imagelayer"/></g><g class="gridlayer"><g class="x"><path class="xgrid crisp" transform="translate(178.32999999999998,0)" d="M0,150v220" style="stroke: rgb(223, 223, 223); stroke-opacity: 1; stroke-width: 1.5px;"/><path class="xgrid crisp" transform="translate(242.78,0)" d="M0,150v220" style="stroke: rgb(223, 223, 223); stroke-opacity: 1; stroke-width: 1.5px;"/><path class="xgrid crisp" transform="translate(307.22,0)" d="M0,150v220" style="stroke: rgb(223, 223, 223); stroke-opacity: 1; stroke-width: 1.5px;"/><path class="xgrid crisp" transform="translate(371.66999999999996,0)" d="M0,150v220" style="stroke: rgb(223, 223, 223); stroke-opacity: 1; stroke-width: 1.5px;"/></g><g class="y"><path class="ygrid crisp" transform="translate(0,326)" d="M130,0h290" style="stroke: rgb(223, 223, 223); stroke-opacity: 1; stroke-width: 1.5px;"/><path class="ygrid crisp" transform="translate(0,282)" d="M130,0h290" style="stroke: rgb(223, 223, 223); stroke-opacity: 1; stroke-width: 1.5px;"/><path class="ygrid crisp" transform="translate(0,238)" d="M130,0h290" style="stroke: rgb(223, 223, 223); stroke-opacity: 1; stroke-width: 1.5px;"/><path class="ygrid crisp" transform="translate(0,194)" d="M130,0h290" style="stroke: rgb(223, 223, 223); stroke-opacity: 1; stroke-width: 1.5px;"/></g></g><g class="zerolinelayer"/><path class="xlines-below"/><path class="ylines-below"/><g class="overlines-below"/><g class="xaxislayer-below"/><g class="yaxislayer-below"/><g class="overaxes-below"/><g class="plot" transform="translate(130, 150)" clip-path="url('#clip98a209xyplot')"><g class="scatterlayer mlayer"><g class="trace scatter traced75586" style="stroke-miterlimit: 2;"><g class="fills"><g><path class="js-fill" d="M9.67,17.65L99.89,23.26L190.11,46.24L280.33,72.28L280.33,61.01L190.11,36.37L99.89,16.42L9.67,12.32Z" style="fill: rgb(102, 194, 165); fill-opacity: 0.05; stroke-width: 0;"/></g></g><g class="errorbars"/><g class="lines"><path class="js-line" d="M9.67,12.32L99.89,16.42L190.11,36.37L280.33,61.01" style="vector-effect: non-scaling-stroke; fill: none; stroke: rgb(102, 194, 165); stroke-opacity: 1; stroke-width: 3px; opacity: 1;"/></g><g class="points"><path class="point" transform="translate(9.67,12.32)" d="M-4.56,0l-2.28,-3.96h4.56l2.28,-3.96l2.28,3.96h4.56l-2.28,3.96l2.28,3.96h-4.56l-2.28,3.96l-2.28,-3.96h-4.56Z" style="opacity: 1; stroke-width: 1.5px; fill: rgb(102, 194, 165); fill-opacity: 1; stroke: rgb(0, 0, 0); stroke-opacity: 1;"/><path class="point" transform="translate(99.89,16.42)" d="M-4.56,0l-2.28,-3.96h4.56l2.28,-3.96l2.28,3.96h4.56l-2.28,3.96l2.28,3.96h-4.56l-2.28,3.96l-2.28,-3.96h-4.56Z" style="opacity: 1; stroke-width: 1.5px; fill: rgb(102, 194, 165); fill-opacity: 1; stroke: rgb(0, 0, 0); stroke-opacity: 1;"/><path class="point" transform="translate(190.11,36.37)" d="M-4.56,0l-2.28,-3.96h4.56l2.28,-3.96l2.28,3.96h4.56l-2.28,3.96l2.28,3.96h-4.56l-2.28,3.96l-2.28,-3.96h-4.56Z" style="opacity: 1; stroke-width: 1.5px; fill: rgb(102, 194, 165); fill-opacity: 1; stroke: rgb(0, 0, 0); stroke-opacity: 1;"/><path class="point" transform="translate(280.33,61.01)" d="M-4.56,0l-2.28,-3.96h4.56l2.28,-3.96l2.28,3.96h4.56l-2.28,3.96l2.28,3.96h-4.56l-2.28,3.96l-2.28,-3.96h-4.56Z" style="opacity: 1; stroke-width: 1.5px; fill: rgb(102, 194, 165); fill-opacity: 1; stroke: rgb(0, 0, 0); stroke-opacity: 1;"/></g><g class="text"/></g><g class="trace scatter trace743383" style="stroke-miterlimit: 2;"><g class="fills"><g><path class="js-fill" d="M9.67,6.98L99.89,9.59L190.11,26.5L280.33,49.74L280.33,72.28L190.11,46.24L99.89,23.26L9.67,17.65Z" style="fill: rgb(102, 194, 165); fill-opacity: 0.1; stroke-width: 0;"/></g></g><g class="errorbars"/><g class="lines"/><g class="points"><path class="point" transform="translate(9.67,17.65)" d="M0.05,0A0.05,0.05 0 1,1 0,-0.05A0.05,0.05 0 0,1 0.05,0Z" style="opacity: 0.1; stroke-width: 0px; fill: rgb(102, 194, 165); fill-opacity: 1;"/><path class="point" transform="translate(99.89,23.26)" d="M0.05,0A0.05,0.05 0 1,1 0,-0.05A0.05,0.05 0 0,1 0.05,0Z" style="opacity: 0.1; stroke-width: 0px; fill: rgb(102, 194, 165); fill-opacity: 1;"/><path class="point" transform="translate(190.11,46.24)" d="M0.05,0A0.05,0.05 0 1,1 0,-0.05A0.05,0.05 0 0,1 0.05,0Z" style="opacity: 0.1; stroke-width: 0px; fill: rgb(102, 194, 165); fill-opacity: 1;"/><path class="point" transform="translate(280.33,72.28)" d="M0.05,0A0.05,0.05 0 1,1 0,-0.05A0.05,0.05 0 0,1 0.05,0Z" style="opacity: 0.1; stroke-width: 0px; fill: rgb(102, 194, 165); fill-opacity: 1;"/></g><g class="text"/></g><g class="trace scatter tracee19ca2" style="stroke-miterlimit: 2;"><g class="fills"/><g class="errorbars"/><g class="lines"/><g class="points"><path class="point" transform="translate(9.67,6.98)" d="M0.05,0A0.05,0.05 0 1,1 0,-0.05A0.05,0.05 0 0,1 0.05,0Z" style="opacity: 0.1; stroke-width: 0px; fill: rgb(102, 194, 165); fill-opacity: 1;"/><path class="point" transform="translate(99.89,9.59)" d="M0.05,0A0.05,0.05 0 1,1 0,-0.05A0.05,0.05 0 0,1 0.05,0Z" style="opacity: 0.1; stroke-width: 0px; fill: rgb(102, 194, 165); fill-opacity: 1;"/><path class="point" transform="translate(190.11,26.5)" d="M0.05,0A0.05,0.05 0 1,1 0,-0.05A0.05,0.05 0 0,1 0.05,0Z" style="opacity: 0.1; stroke-width: 0px; fill: rgb(102, 194, 165); fill-opacity: 1;"/><path class="point" transform="translate(280.33,49.74)" d="M0.05,0A0.05,0.05 0 1,1 0,-0.05A0.05,0.05 0 0,1 0.05,0Z" style="opacity: 0.1; stroke-width: 0px; fill: rgb(102, 194, 165); fill-opacity: 1;"/></g><g class="text"/></g><g class="trace scatter trace8902a5" style="stroke-miterlimit: 2;"><g class="fills"><g><path class="js-fill" d="M9.67,25.52L99.89,62.77L190.11,118.66L280.33,139.08L280.33,128.48L190.11,106.92L99.89,53.24L9.67,19.36Z" style="fill: rgb(252, 141, 98); fill-opacity: 0.075; stroke-width: 0;"/></g></g><g class="errorbars"/><g class="lines"><path class="js-line" d="M9.67,19.36L99.89,53.24L190.11,106.92L280.33,128.48" style="vector-effect: non-scaling-stroke; fill: none; stroke: rgb(252, 141, 98); stroke-opacity: 1; stroke-width: 3px; opacity: 1;"/></g><g class="points"><path class="point" transform="translate(9.67,19.36)" d="M-4.56,0l-2.28,-3.96h4.56l2.28,-3.96l2.28,3.96h4.56l-2.28,3.96l2.28,3.96h-4.56l-2.28,3.96l-2.28,-3.96h-4.56Z" style="opacity: 1; stroke-width: 1.5px; fill: rgb(252, 141, 98); fill-opacity: 1; stroke: rgb(0, 0, 0); stroke-opacity: 1;"/><path class="point" transform="translate(99.89,53.24)" d="M-4.56,0l-2.28,-3.96h4.56l2.28,-3.96l2.28,3.96h4.56l-2.28,3.96l2.28,3.96h-4.56l-2.28,3.96l-2.28,-3.96h-4.56Z" style="opacity: 1; stroke-width: 1.5px; fill: rgb(252, 141, 98); fill-opacity: 1; stroke: rgb(0, 0, 0); stroke-opacity: 1;"/><path class="point" transform="translate(190.11,106.92)" d="M-4.56,0l-2.28,-3.96h4.56l2.28,-3.96l2.28,3.96h4.56l-2.28,3.96l2.28,3.96h-4.56l-2.28,3.96l-2.28,-3.96h-4.56Z" style="opacity: 1; stroke-width: 1.5px; fill: rgb(252, 141, 98); fill-opacity: 1; stroke: rgb(0, 0, 0); stroke-opacity: 1;"/><path class="point" transform="translate(280.33,128.48)" d="M-4.56,0l-2.28,-3.96h4.56l2.28,-3.96l2.28,3.96h4.56l-2.28,3.96l2.28,3.96h-4.56l-2.28,3.96l-2.28,-3.96h-4.56Z" style="opacity: 1; stroke-width: 1.5px; fill: rgb(252, 141, 98); fill-opacity: 1; stroke: rgb(0, 0, 0); stroke-opacity: 1;"/></g><g class="text"/></g><g class="trace scatter trace5cdf2c" style="stroke-miterlimit: 2;"><g class="fills"><g><path class="js-fill" d="M9.67,13.2L99.89,43.71L190.11,95.18L280.33,117.88L280.33,139.08L190.11,118.66L99.89,62.77L9.67,25.52Z" style="fill: rgb(252, 141, 98); fill-opacity: 0.15; stroke-width: 0;"/></g></g><g class="errorbars"/><g class="lines"/><g class="points"><path class="point" transform="translate(9.67,25.52)" d="M0.05,0A0.05,0.05 0 1,1 0,-0.05A0.05,0.05 0 0,1 0.05,0Z" style="opacity: 0.1; stroke-width: 0px; fill: rgb(252, 141, 98); fill-opacity: 1;"/><path class="point" transform="translate(99.89,62.77)" d="M0.05,0A0.05,0.05 0 1,1 0,-0.05A0.05,0.05 0 0,1 0.05,0Z" style="opacity: 0.1; stroke-width: 0px; fill: rgb(252, 141, 98); fill-opacity: 1;"/><path class="point" transform="translate(190.11,118.66)" d="M0.05,0A0.05,0.05 0 1,1 0,-0.05A0.05,0.05 0 0,1 0.05,0Z" style="opacity: 0.1; stroke-width: 0px; fill: rgb(252, 141, 98); fill-opacity: 1;"/><path class="point" transform="translate(280.33,139.08)" d="M0.05,0A0.05,0.05 0 1,1 0,-0.05A0.05,0.05 0 0,1 0.05,0Z" style="opacity: 0.1; stroke-width: 0px; fill: rgb(252, 141, 98); fill-opacity: 1;"/></g><g class="text"/></g><g class="trace scatter traceb61ca1" style="stroke-miterlimit: 2;"><g class="fills"/><g class="errorbars"/><g class="lines"/><g class="points"><path class="point" transform="translate(9.67,13.2)" d="M0.05,0A0.05,0.05 0 1,1 0,-0.05A0.05,0.05 0 0,1 0.05,0Z" style="opacity: 0.1; stroke-width: 0px; fill: rgb(252, 141, 98); fill-opacity: 1;"/><path class="point" transform="translate(99.89,43.71)" d="M0.05,0A0.05,0.05 0 1,1 0,-0.05A0.05,0.05 0 0,1 0.05,0Z" style="opacity: 0.1; stroke-width: 0px; fill: rgb(252, 141, 98); fill-opacity: 1;"/><path class="point" transform="translate(190.11,95.18)" d="M0.05,0A0.05,0.05 0 1,1 0,-0.05A0.05,0.05 0 0,1 0.05,0Z" style="opacity: 0.1; stroke-width: 0px; fill: rgb(252, 141, 98); fill-opacity: 1;"/><path class="point" transform="translate(280.33,117.88)" d="M0.05,0A0.05,0.05 0 1,1 0,-0.05A0.05,0.05 0 0,1 0.05,0Z" style="opacity: 0.1; stroke-width: 0px; fill: rgb(252, 141, 98); fill-opacity: 1;"/></g><g class="text"/></g><g class="trace scatter trace728457" style="stroke-miterlimit: 2;"><g class="fills"><g><path class="js-fill" d="M9.67,55.33L99.89,119.49L190.11,171.9L280.33,182.15L280.33,172.48L190.11,162.62L99.89,109.47L9.67,46.82Z" style="fill: rgb(141, 160, 203); fill-opacity: 0.075; stroke-width: 0;"/></g></g><g class="errorbars"/><g class="lines"><path class="js-line" d="M9.67,46.82L99.89,109.47L190.11,162.62L280.33,172.48" style="vector-effect: non-scaling-stroke; fill: none; stroke: rgb(141, 160, 203); stroke-opacity: 1; stroke-width: 3px; opacity: 1;"/></g><g class="points"><path class="point" transform="translate(9.67,46.82)" d="M-4.56,0l-2.28,-3.96h4.56l2.28,-3.96l2.28,3.96h4.56l-2.28,3.96l2.28,3.96h-4.56l-2.28,3.96l-2.28,-3.96h-4.56Z" style="opacity: 1; stroke-width: 1.5px; fill: rgb(141, 160, 203); fill-opacity: 1; stroke: rgb(0, 0, 0); stroke-opacity: 1;"/><path class="point" transform="translate(99.89,109.47)" d="M-4.56,0l-2.28,-3.96h4.56l2.28,-3.96l2.28,3.96h4.56l-2.28,3.96l2.28,3.96h-4.56l-2.28,3.96l-2.28,-3.96h-4.56Z" style="opacity: 1; stroke-width: 1.5px; fill: rgb(141, 160, 203); fill-opacity: 1; stroke: rgb(0, 0, 0); stroke-opacity: 1;"/><path class="point" transform="translate(190.11,162.62)" d="M-4.56,0l-2.28,-3.96h4.56l2.28,-3.96l2.28,3.96h4.56l-2.28,3.96l2.28,3.96h-4.56l-2.28,3.96l-2.28,-3.96h-4.56Z" style="opacity: 1; stroke-width: 1.5px; fill: rgb(141, 160, 203); fill-opacity: 1; stroke: rgb(0, 0, 0); stroke-opacity: 1;"/><path class="point" transform="translate(280.33,172.48)" d="M-4.56,0l-2.28,-3.96h4.56l2.28,-3.96l2.28,3.96h4.56l-2.28,3.96l2.28,3.96h-4.56l-2.28,3.96l-2.28,-3.96h-4.56Z" style="opacity: 1; stroke-width: 1.5px; fill: rgb(141, 160, 203); fill-opacity: 1; stroke: rgb(0, 0, 0); stroke-opacity: 1;"/></g><g class="text"/></g><g class="trace scatter trace8a2b11" style="stroke-miterlimit: 2;"><g class="fills"><g><path class="js-fill" d="M9.67,38.3L99.89,99.45L190.11,153.35L280.33,162.81L280.33,182.15L190.11,171.9L99.89,119.49L9.67,55.33Z" style="fill: rgb(141, 160, 203); fill-opacity: 0.15; stroke-width: 0;"/></g></g><g class="errorbars"/><g class="lines"/><g class="points"><path class="point" transform="translate(9.67,55.33)" d="M0.05,0A0.05,0.05 0 1,1 0,-0.05A0.05,0.05 0 0,1 0.05,0Z" style="opacity: 0.1; stroke-width: 0px; fill: rgb(141, 160, 203); fill-opacity: 1;"/><path class="point" transform="translate(99.89,119.49)" d="M0.05,0A0.05,0.05 0 1,1 0,-0.05A0.05,0.05 0 0,1 0.05,0Z" style="opacity: 0.1; stroke-width: 0px; fill: rgb(141, 160, 203); fill-opacity: 1;"/><path class="point" transform="translate(190.11,171.9)" d="M0.05,0A0.05,0.05 0 1,1 0,-0.05A0.05,0.05 0 0,1 0.05,0Z" style="opacity: 0.1; stroke-width: 0px; fill: rgb(141, 160, 203); fill-opacity: 1;"/><path class="point" transform="translate(280.33,182.15)" d="M0.05,0A0.05,0.05 0 1,1 0,-0.05A0.05,0.05 0 0,1 0.05,0Z" style="opacity: 0.1; stroke-width: 0px; fill: rgb(141, 160, 203); fill-opacity: 1;"/></g><g class="text"/></g><g class="trace scatter trace98d2c3" style="stroke-miterlimit: 2;"><g class="fills"/><g class="errorbars"/><g class="lines"/><g class="points"><path class="point" transform="translate(9.67,38.3)" d="M0.05,0A0.05,0.05 0 1,1 0,-0.05A0.05,0.05 0 0,1 0.05,0Z" style="opacity: 0.1; stroke-width: 0px; fill: rgb(141, 160, 203); fill-opacity: 1;"/><path class="point" transform="translate(99.89,99.45)" d="M0.05,0A0.05,0.05 0 1,1 0,-0.05A0.05,0.05 0 0,1 0.05,0Z" style="opacity: 0.1; stroke-width: 0px; fill: rgb(141, 160, 203); fill-opacity: 1;"/><path class="point" transform="translate(190.11,153.35)" d="M0.05,0A0.05,0.05 0 1,1 0,-0.05A0.05,0.05 0 0,1 0.05,0Z" style="opacity: 0.1; stroke-width: 0px; fill: rgb(141, 160, 203); fill-opacity: 1;"/><path class="point" transform="translate(280.33,162.81)" d="M0.05,0A0.05,0.05 0 1,1 0,-0.05A0.05,0.05 0 0,1 0.05,0Z" style="opacity: 0.1; stroke-width: 0px; fill: rgb(141, 160, 203); fill-opacity: 1;"/></g><g class="text"/></g><g class="trace scatter trace2b45c9" style="stroke-miterlimit: 2;"><g class="fills"><g><path class="js-fill" d="M9.67,98.79L99.89,168L190.11,196.56L280.33,198.42L280.33,189.79L190.11,188.02L99.89,159.56L9.67,89.48Z" style="fill: rgb(231, 138, 195); fill-opacity: 0.075; stroke-width: 0;"/></g></g><g class="errorbars"/><g class="lines"><path class="js-line" d="M9.67,89.48L99.89,159.56L190.11,188.02L280.33,189.79" style="vector-effect: non-scaling-stroke; fill: none; stroke: rgb(231, 138, 195); stroke-opacity: 1; stroke-width: 3px; opacity: 1;"/></g><g class="points"><path class="point" transform="translate(9.67,89.48)" d="M-4.56,0l-2.28,-3.96h4.56l2.28,-3.96l2.28,3.96h4.56l-2.28,3.96l2.28,3.96h-4.56l-2.28,3.96l-2.28,-3.96h-4.56Z" style="opacity: 1; stroke-width: 1.5px; fill: rgb(231, 138, 195); fill-opacity: 1; stroke: rgb(0, 0, 0); stroke-opacity: 1;"/><path class="point" transform="translate(99.89,159.56)" d="M-4.56,0l-2.28,-3.96h4.56l2.28,-3.96l2.28,3.96h4.56l-2.28,3.96l2.28,3.96h-4.56l-2.28,3.96l-2.28,-3.96h-4.56Z" style="opacity: 1; stroke-width: 1.5px; fill: rgb(231, 138, 195); fill-opacity: 1; stroke: rgb(0, 0, 0); stroke-opacity: 1;"/><path class="point" transform="translate(190.11,188.02)" d="M-4.56,0l-2.28,-3.96h4.56l2.28,-3.96l2.28,3.96h4.56l-2.28,3.96l2.28,3.96h-4.56l-2.28,3.96l-2.28,-3.96h-4.56Z" style="opacity: 1; stroke-width: 1.5px; fill: rgb(231, 138, 195); fill-opacity: 1; stroke: rgb(0, 0, 0); stroke-opacity: 1;"/><path class="point" transform="translate(280.33,189.79)" d="M-4.56,0l-2.28,-3.96h4.56l2.28,-3.96l2.28,3.96h4.56l-2.28,3.96l2.28,3.96h-4.56l-2.28,3.96l-2.28,-3.96h-4.56Z" style="opacity: 1; stroke-width: 1.5px; fill: rgb(231, 138, 195); fill-opacity: 1; stroke: rgb(0, 0, 0); stroke-opacity: 1;"/></g><g class="text"/></g><g class="trace scatter tracefb02d6" style="stroke-miterlimit: 2;"><g class="fills"><g><path class="js-fill" d="M9.67,80.16L99.89,151.13L190.11,179.48L280.33,181.15L280.33,198.42L190.11,196.56L99.89,168L9.67,98.79Z" style="fill: rgb(231, 138, 195); fill-opacity: 0.15; stroke-width: 0;"/></g></g><g class="errorbars"/><g class="lines"/><g class="points"><path class="point" transform="translate(9.67,98.79)" d="M0.05,0A0.05,0.05 0 1,1 0,-0.05A0.05,0.05 0 0,1 0.05,0Z" style="opacity: 0.1; stroke-width: 0px; fill: rgb(231, 138, 195); fill-opacity: 1;"/><path class="point" transform="translate(99.89,168)" d="M0.05,0A0.05,0.05 0 1,1 0,-0.05A0.05,0.05 0 0,1 0.05,0Z" style="opacity: 0.1; stroke-width: 0px; fill: rgb(231, 138, 195); fill-opacity: 1;"/><path class="point" transform="translate(190.11,196.56)" d="M0.05,0A0.05,0.05 0 1,1 0,-0.05A0.05,0.05 0 0,1 0.05,0Z" style="opacity: 0.1; stroke-width: 0px; fill: rgb(231, 138, 195); fill-opacity: 1;"/><path class="point" transform="translate(280.33,198.42)" d="M0.05,0A0.05,0.05 0 1,1 0,-0.05A0.05,0.05 0 0,1 0.05,0Z" style="opacity: 0.1; stroke-width: 0px; fill: rgb(231, 138, 195); fill-opacity: 1;"/></g><g class="text"/></g><g class="trace scatter trace8fbf7d" style="stroke-miterlimit: 2;"><g class="fills"/><g class="errorbars"/><g class="lines"/><g class="points"><path class="point" transform="translate(9.67,80.16)" d="M0.05,0A0.05,0.05 0 1,1 0,-0.05A0.05,0.05 0 0,1 0.05,0Z" style="opacity: 0.1; stroke-width: 0px; fill: rgb(231, 138, 195); fill-opacity: 1;"/><path class="point" transform="translate(99.89,151.13)" d="M0.05,0A0.05,0.05 0 1,1 0,-0.05A0.05,0.05 0 0,1 0.05,0Z" style="opacity: 0.1; stroke-width: 0px; fill: rgb(231, 138, 195); fill-opacity: 1;"/><path class="point" transform="translate(190.11,179.48)" d="M0.05,0A0.05,0.05 0 1,1 0,-0.05A0.05,0.05 0 0,1 0.05,0Z" style="opacity: 0.1; stroke-width: 0px; fill: rgb(231, 138, 195); fill-opacity: 1;"/><path class="point" transform="translate(280.33,181.15)" d="M0.05,0A0.05,0.05 0 1,1 0,-0.05A0.05,0.05 0 0,1 0.05,0Z" style="opacity: 0.1; stroke-width: 0px; fill: rgb(231, 138, 195); fill-opacity: 1;"/></g><g class="text"/></g><g class="trace scatter trace55e932" style="stroke-miterlimit: 2;"><g class="fills"><g><path class="js-fill" d="M9.67,131.05L99.89,171.44L190.11,193.48L280.33,202.62L280.33,194.87L190.11,185.82L99.89,163.19L9.67,122.22Z" style="fill: rgb(166, 216, 84); fill-opacity: 0.075; stroke-width: 0;"/></g></g><g class="errorbars"/><g class="lines"><path class="js-line" d="M9.67,122.22L99.89,163.19L190.11,185.82L280.33,194.87" style="vector-effect: non-scaling-stroke; fill: none; stroke: rgb(166, 216, 84); stroke-opacity: 1; stroke-width: 3px; opacity: 1;"/></g><g class="points"><path class="point" transform="translate(9.67,122.22)" d="M-4.56,0l-2.28,-3.96h4.56l2.28,-3.96l2.28,3.96h4.56l-2.28,3.96l2.28,3.96h-4.56l-2.28,3.96l-2.28,-3.96h-4.56Z" style="opacity: 1; stroke-width: 1.5px; fill: rgb(166, 216, 84); fill-opacity: 1; stroke: rgb(0, 0, 0); stroke-opacity: 1;"/><path class="point" transform="translate(99.89,163.19)" d="M-4.56,0l-2.28,-3.96h4.56l2.28,-3.96l2.28,3.96h4.56l-2.28,3.96l2.28,3.96h-4.56l-2.28,3.96l-2.28,-3.96h-4.56Z" style="opacity: 1; stroke-width: 1.5px; fill: rgb(166, 216, 84); fill-opacity: 1; stroke: rgb(0, 0, 0); stroke-opacity: 1;"/><path class="point" transform="translate(190.11,185.82)" d="M-4.56,0l-2.28,-3.96h4.56l2.28,-3.96l2.28,3.96h4.56l-2.28,3.96l2.28,3.96h-4.56l-2.28,3.96l-2.28,-3.96h-4.56Z" style="opacity: 1; stroke-width: 1.5px; fill: rgb(166, 216, 84); fill-opacity: 1; stroke: rgb(0, 0, 0); stroke-opacity: 1;"/><path class="point" transform="translate(280.33,194.87)" d="M-4.56,0l-2.28,-3.96h4.56l2.28,-3.96l2.28,3.96h4.56l-2.28,3.96l2.28,3.96h-4.56l-2.28,3.96l-2.28,-3.96h-4.56Z" style="opacity: 1; stroke-width: 1.5px; fill: rgb(166, 216, 84); fill-opacity: 1; stroke: rgb(0, 0, 0); stroke-opacity: 1;"/></g><g class="text"/></g><g class="trace scatter trace9fd5a7" style="stroke-miterlimit: 2;"><g class="fills"><g><path class="js-fill" d="M9.67,113.38L99.89,154.95L190.11,178.16L280.33,187.11L280.33,202.62L190.11,193.48L99.89,171.44L9.67,131.05Z" style="fill: rgb(166, 216, 84); fill-opacity: 0.15; stroke-width: 0;"/></g></g><g class="errorbars"/><g class="lines"/><g class="points"><path class="point" transform="translate(9.67,131.05)" d="M0.05,0A0.05,0.05 0 1,1 0,-0.05A0.05,0.05 0 0,1 0.05,0Z" style="opacity: 0.1; stroke-width: 0px; fill: rgb(166, 216, 84); fill-opacity: 1;"/><path class="point" transform="translate(99.89,171.44)" d="M0.05,0A0.05,0.05 0 1,1 0,-0.05A0.05,0.05 0 0,1 0.05,0Z" style="opacity: 0.1; stroke-width: 0px; fill: rgb(166, 216, 84); fill-opacity: 1;"/><path class="point" transform="translate(190.11,193.48)" d="M0.05,0A0.05,0.05 0 1,1 0,-0.05A0.05,0.05 0 0,1 0.05,0Z" style="opacity: 0.1; stroke-width: 0px; fill: rgb(166, 216, 84); fill-opacity: 1;"/><path class="point" transform="translate(280.33,202.62)" d="M0.05,0A0.05,0.05 0 1,1 0,-0.05A0.05,0.05 0 0,1 0.05,0Z" style="opacity: 0.1; stroke-width: 0px; fill: rgb(166, 216, 84); fill-opacity: 1;"/></g><g class="text"/></g><g class="trace scatter trace4a0ede" style="stroke-miterlimit: 2;"><g class="fills"/><g class="errorbars"/><g class="lines"/><g class="points"><path class="point" transform="translate(9.67,113.38)" d="M0.05,0A0.05,0.05 0 1,1 0,-0.05A0.05,0.05 0 0,1 0.05,0Z" style="opacity: 0.1; stroke-width: 0px; fill: rgb(166, 216, 84); fill-opacity: 1;"/><path class="point" transform="translate(99.89,154.95)" d="M0.05,0A0.05,0.05 0 1,1 0,-0.05A0.05,0.05 0 0,1 0.05,0Z" style="opacity: 0.1; stroke-width: 0px; fill: rgb(166, 216, 84); fill-opacity: 1;"/><path class="point" transform="translate(190.11,178.16)" d="M0.05,0A0.05,0.05 0 1,1 0,-0.05A0.05,0.05 0 0,1 0.05,0Z" style="opacity: 0.1; stroke-width: 0px; fill: rgb(166, 216, 84); fill-opacity: 1;"/><path class="point" transform="translate(280.33,187.11)" d="M0.05,0A0.05,0.05 0 1,1 0,-0.05A0.05,0.05 0 0,1 0.05,0Z" style="opacity: 0.1; stroke-width: 0px; fill: rgb(166, 216, 84); fill-opacity: 1;"/></g><g class="text"/></g><g class="trace scatter tracee088c4" style="stroke-miterlimit: 2;"><g class="fills"><g><path class="js-fill" d="M9.67,161.34L99.89,193.95L190.11,215.47L280.33,211.56L280.33,205.04L190.11,208.12L99.89,186.56L9.67,154.44Z" style="fill: rgb(255, 217, 47); fill-opacity: 0.075; stroke-width: 0;"/></g></g><g class="errorbars"/><g class="lines"><path class="js-line" d="M9.67,154.44L99.89,186.56L190.11,208.12L280.33,205.04" style="vector-effect: non-scaling-stroke; fill: none; stroke: rgb(255, 217, 47); stroke-opacity: 1; stroke-width: 3px; opacity: 1;"/></g><g class="points"><path class="point" transform="translate(9.67,154.44)" d="M-4.56,0l-2.28,-3.96h4.56l2.28,-3.96l2.28,3.96h4.56l-2.28,3.96l2.28,3.96h-4.56l-2.28,3.96l-2.28,-3.96h-4.56Z" style="opacity: 1; stroke-width: 1.5px; fill: rgb(255, 217, 47); fill-opacity: 1; stroke: rgb(0, 0, 0); stroke-opacity: 1;"/><path class="point" transform="translate(99.89,186.56)" d="M-4.56,0l-2.28,-3.96h4.56l2.28,-3.96l2.28,3.96h4.56l-2.28,3.96l2.28,3.96h-4.56l-2.28,3.96l-2.28,-3.96h-4.56Z" style="opacity: 1; stroke-width: 1.5px; fill: rgb(255, 217, 47); fill-opacity: 1; stroke: rgb(0, 0, 0); stroke-opacity: 1;"/><path class="point" transform="translate(190.11,208.12)" d="M-4.56,0l-2.28,-3.96h4.56l2.28,-3.96l2.28,3.96h4.56l-2.28,3.96l2.28,3.96h-4.56l-2.28,3.96l-2.28,-3.96h-4.56Z" style="opacity: 1; stroke-width: 1.5px; fill: rgb(255, 217, 47); fill-opacity: 1; stroke: rgb(0, 0, 0); stroke-opacity: 1;"/><path class="point" transform="translate(280.33,205.04)" d="M-4.56,0l-2.28,-3.96h4.56l2.28,-3.96l2.28,3.96h4.56l-2.28,3.96l2.28,3.96h-4.56l-2.28,3.96l-2.28,-3.96h-4.56Z" style="opacity: 1; stroke-width: 1.5px; fill: rgb(255, 217, 47); fill-opacity: 1; stroke: rgb(0, 0, 0); stroke-opacity: 1;"/></g><g class="text"/></g><g class="trace scatter trace8b8b9e" style="stroke-miterlimit: 2;"><g class="fills"><g><path class="js-fill" d="M9.67,147.54L99.89,179.17L190.11,200.77L280.33,198.52L280.33,211.56L190.11,215.47L99.89,193.95L9.67,161.34Z" style="fill: rgb(255, 217, 47); fill-opacity: 0.15; stroke-width: 0;"/></g></g><g class="errorbars"/><g class="lines"/><g class="points"><path class="point" transform="translate(9.67,161.34)" d="M0.05,0A0.05,0.05 0 1,1 0,-0.05A0.05,0.05 0 0,1 0.05,0Z" style="opacity: 0.1; stroke-width: 0px; fill: rgb(255, 217, 47); fill-opacity: 1;"/><path class="point" transform="translate(99.89,193.95)" d="M0.05,0A0.05,0.05 0 1,1 0,-0.05A0.05,0.05 0 0,1 0.05,0Z" style="opacity: 0.1; stroke-width: 0px; fill: rgb(255, 217, 47); fill-opacity: 1;"/><path class="point" transform="translate(190.11,215.47)" d="M0.05,0A0.05,0.05 0 1,1 0,-0.05A0.05,0.05 0 0,1 0.05,0Z" style="opacity: 0.1; stroke-width: 0px; fill: rgb(255, 217, 47); fill-opacity: 1;"/><path class="point" transform="translate(280.33,211.56)" d="M0.05,0A0.05,0.05 0 1,1 0,-0.05A0.05,0.05 0 0,1 0.05,0Z" style="opacity: 0.1; stroke-width: 0px; fill: rgb(255, 217, 47); fill-opacity: 1;"/></g><g class="text"/></g><g class="trace scatter traceb54c28" style="stroke-miterlimit: 2;"><g class="fills"/><g class="errorbars"/><g class="lines"/><g class="points"><path class="point" transform="translate(9.67,147.54)" d="M0.05,0A0.05,0.05 0 1,1 0,-0.05A0.05,0.05 0 0,1 0.05,0Z" style="opacity: 0.1; stroke-width: 0px; fill: rgb(255, 217, 47); fill-opacity: 1;"/><path class="point" transform="translate(99.89,179.17)" d="M0.05,0A0.05,0.05 0 1,1 0,-0.05A0.05,0.05 0 0,1 0.05,0Z" style="opacity: 0.1; stroke-width: 0px; fill: rgb(255, 217, 47); fill-opacity: 1;"/><path class="point" transform="translate(190.11,200.77)" d="M0.05,0A0.05,0.05 0 1,1 0,-0.05A0.05,0.05 0 0,1 0.05,0Z" style="opacity: 0.1; stroke-width: 0px; fill: rgb(255, 217, 47); fill-opacity: 1;"/><path class="point" transform="translate(280.33,198.52)" d="M0.05,0A0.05,0.05 0 1,1 0,-0.05A0.05,0.05 0 0,1 0.05,0Z" style="opacity: 0.1; stroke-width: 0px; fill: rgb(255, 217, 47); fill-opacity: 1;"/></g><g class="text"/></g></g></g><g class="overplot"/><path class="xlines-above crisp" d="M128,371H420" style="fill: none; stroke-width: 2px; stroke: rgb(175, 175, 175); stroke-opacity: 1;"/><path class="ylines-above crisp" d="M129,150V370" style="fill: none; stroke-width: 2px; stroke: rgb(175, 175, 175); stroke-opacity: 1;"/><g class="overlines-above"/><g class="xaxislayer-above"><g class="xtick"><text text-anchor="middle" x="0" y="388.8" transform="translate(178.32999999999998,0)" style="font-family: 'Open Sans', verdana, arial, sans-serif; font-size: 14px; fill: rgb(0, 0, 0); fill-opacity: 1; white-space: pre;">4</text></g><g class="xtick"><text text-anchor="middle" x="0" y="388.8" transform="translate(242.78,0)" style="font-family: 'Open Sans', verdana, arial, sans-serif; font-size: 14px; fill: rgb(0, 0, 0); fill-opacity: 1; white-space: pre;">6</text></g><g class="xtick"><text text-anchor="middle" x="0" y="388.8" transform="translate(307.22,0)" style="font-family: 'Open Sans', verdana, arial, sans-serif; font-size: 14px; fill: rgb(0, 0, 0); fill-opacity: 1; white-space: pre;">8</text></g><g class="xtick"><text text-anchor="middle" x="0" y="388.8" transform="translate(371.66999999999996,0)" style="font-family: 'Open Sans', verdana, arial, sans-serif; font-size: 14px; fill: rgb(0, 0, 0); fill-opacity: 1; white-space: pre;">10</text></g></g><g class="yaxislayer-above"><g class="ytick"><text text-anchor="end" x="125.2" y="4.8999999999999995" transform="translate(0,370)" style="font-family: 'Open Sans', verdana, arial, sans-serif; font-size: 14px; fill: rgb(0, 0, 0); fill-opacity: 1; white-space: pre;">0.5</text></g><g class="ytick"><text text-anchor="end" x="125.2" y="4.8999999999999995" transform="translate(0,326)" style="font-family: 'Open Sans', verdana, arial, sans-serif; font-size: 14px; fill: rgb(0, 0, 0); fill-opacity: 1; white-space: pre;">0.6</text></g><g class="ytick"><text text-anchor="end" x="125.2" y="4.8999999999999995" transform="translate(0,282)" style="font-family: 'Open Sans', verdana, arial, sans-serif; font-size: 14px; fill: rgb(0, 0, 0); fill-opacity: 1; white-space: pre;">0.7</text></g><g class="ytick"><text text-anchor="end" x="125.2" y="4.8999999999999995" transform="translate(0,238)" style="font-family: 'Open Sans', verdana, arial, sans-serif; font-size: 14px; fill: rgb(0, 0, 0); fill-opacity: 1; white-space: pre;">0.8</text></g><g class="ytick"><text text-anchor="end" x="125.2" y="4.8999999999999995" transform="translate(0,194)" style="font-family: 'Open Sans', verdana, arial, sans-serif; font-size: 14px; fill: rgb(0, 0, 0); fill-opacity: 1; white-space: pre;">0.9</text></g><g class="ytick"><text text-anchor="end" x="125.2" y="4.8999999999999995" transform="translate(0,150)" style="font-family: 'Open Sans', verdana, arial, sans-serif; font-size: 14px; fill: rgb(0, 0, 0); fill-opacity: 1; white-space: pre;">1</text></g></g><g class="overaxes-above"/></g></g><g class="polarlayer"/><g class="ternarylayer"/><g class="geolayer"/><g class="funnelarealayer"/><g class="pielayer"/><g class="sunburstlayer"/><g class="glimages"/><defs id="topdefs-98a209"><g class="clips"/><clipPath id="legend98a209"><rect width="112" height="138" x="0" y="0"/></clipPath></defs><g class="layer-above"><g class="imagelayer"/><g class="shapelayer"/></g><g class="infolayer"><g class="legend" pointer-events="all" transform="translate(425.8, 150)"><rect class="bg" shape-rendering="crispEdges" width="112" height="138" x="0" y="0" style="stroke: rgb(68, 68, 68); stroke-opacity: 1; fill: rgb(255, 255, 255); fill-opacity: 1; stroke-width: 0px;"/><g class="scrollbox" transform="translate(0, 0)" clip-path="url('#legend98a209')"><g class="groups"><g class="traces" transform="translate(0, 15.6)" style="opacity: 1;"><text class="legendtext user-select-none" text-anchor="start" x="40" y="5.46" style="font-family: 'Open Sans', verdana, arial, sans-serif; font-size: 14px; fill: rgb(42, 63, 95); fill-opacity: 1; white-space: pre;">3 Targets</text><g class="layers"><g class="legendfill"/><g class="legendlines"><path class="js-line" d="M5,0h30" style="fill: none; stroke: rgb(102, 194, 165); stroke-opacity: 1; stroke-width: 3px;"/></g><g class="legendsymbols"><g class="legendpoints"><path class="scatterpts" transform="translate(20,0)" d="M-4.56,0l-2.28,-3.96h4.56l2.28,-3.96l2.28,3.96h4.56l-2.28,3.96l2.28,3.96h-4.56l-2.28,3.96l-2.28,-3.96h-4.56Z" style="opacity: 1; stroke-width: 1.5px; fill: rgb(102, 194, 165); fill-opacity: 1; stroke: rgb(0, 0, 0); stroke-opacity: 1;"/></g></g></g><rect class="legendtoggle" pointer-events="all" x="0" y="-10.6" width="152" height="21.2" style="cursor: pointer; fill: rgb(0, 0, 0); fill-opacity: 0;"/></g><g class="traces" transform="translate(0, 36.8)" style="opacity: 1;"><text class="legendtext user-select-none" text-anchor="start" x="40" y="5.46" style="font-family: 'Open Sans', verdana, arial, sans-serif; font-size: 14px; fill: rgb(42, 63, 95); fill-opacity: 1; white-space: pre;">4 Targets</text><g class="layers"><g class="legendfill"/><g class="legendlines"><path class="js-line" d="M5,0h30" style="fill: none; stroke: rgb(252, 141, 98); stroke-opacity: 1; stroke-width: 3px;"/></g><g class="legendsymbols"><g class="legendpoints"><path class="scatterpts" transform="translate(20,0)" d="M-4.56,0l-2.28,-3.96h4.56l2.28,-3.96l2.28,3.96h4.56l-2.28,3.96l2.28,3.96h-4.56l-2.28,3.96l-2.28,-3.96h-4.56Z" style="opacity: 1; stroke-width: 1.5px; fill: rgb(252, 141, 98); fill-opacity: 1; stroke: rgb(0, 0, 0); stroke-opacity: 1;"/></g></g></g><rect class="legendtoggle" pointer-events="all" x="0" y="-10.6" width="152" height="21.2" style="cursor: pointer; fill: rgb(0, 0, 0); fill-opacity: 0;"/></g><g class="traces" transform="translate(0, 58)" style="opacity: 1;"><text class="legendtext user-select-none" text-anchor="start" x="40" y="5.46" style="font-family: 'Open Sans', verdana, arial, sans-serif; font-size: 14px; fill: rgb(42, 63, 95); fill-opacity: 1; white-space: pre;">5 Targets</text><g class="layers"><g class="legendfill"/><g class="legendlines"><path class="js-line" d="M5,0h30" style="fill: none; stroke: rgb(141, 160, 203); stroke-opacity: 1; stroke-width: 3px;"/></g><g class="legendsymbols"><g class="legendpoints"><path class="scatterpts" transform="translate(20,0)" d="M-4.56,0l-2.28,-3.96h4.56l2.28,-3.96l2.28,3.96h4.56l-2.28,3.96l2.28,3.96h-4.56l-2.28,3.96l-2.28,-3.96h-4.56Z" style="opacity: 1; stroke-width: 1.5px; fill: rgb(141, 160, 203); fill-opacity: 1; stroke: rgb(0, 0, 0); stroke-opacity: 1;"/></g></g></g><rect class="legendtoggle" pointer-events="all" x="0" y="-10.6" width="152" height="21.2" style="cursor: pointer; fill: rgb(0, 0, 0); fill-opacity: 0;"/></g><g class="traces" transform="translate(0, 79.19999999999999)" style="opacity: 1;"><text class="legendtext user-select-none" text-anchor="start" x="40" y="5.46" style="font-family: 'Open Sans', verdana, arial, sans-serif; font-size: 14px; fill: rgb(42, 63, 95); fill-opacity: 1; white-space: pre;">6 Targets</text><g class="layers"><g class="legendfill"/><g class="legendlines"><path class="js-line" d="M5,0h30" style="fill: none; stroke: rgb(231, 138, 195); stroke-opacity: 1; stroke-width: 3px;"/></g><g class="legendsymbols"><g class="legendpoints"><path class="scatterpts" transform="translate(20,0)" d="M-4.56,0l-2.28,-3.96h4.56l2.28,-3.96l2.28,3.96h4.56l-2.28,3.96l2.28,3.96h-4.56l-2.28,3.96l-2.28,-3.96h-4.56Z" style="opacity: 1; stroke-width: 1.5px; fill: rgb(231, 138, 195); fill-opacity: 1; stroke: rgb(0, 0, 0); stroke-opacity: 1;"/></g></g></g><rect class="legendtoggle" pointer-events="all" x="0" y="-10.6" width="152" height="21.2" style="cursor: pointer; fill: rgb(0, 0, 0); fill-opacity: 0;"/></g><g class="traces" transform="translate(0, 100.39999999999999)" style="opacity: 1;"><text class="legendtext user-select-none" text-anchor="start" x="40" y="5.46" style="font-family: 'Open Sans', verdana, arial, sans-serif; font-size: 14px; fill: rgb(42, 63, 95); fill-opacity: 1; white-space: pre;">7 Targets</text><g class="layers"><g class="legendfill"/><g class="legendlines"><path class="js-line" d="M5,0h30" style="fill: none; stroke: rgb(166, 216, 84); stroke-opacity: 1; stroke-width: 3px;"/></g><g class="legendsymbols"><g class="legendpoints"><path class="scatterpts" transform="translate(20,0)" d="M-4.56,0l-2.28,-3.96h4.56l2.28,-3.96l2.28,3.96h4.56l-2.28,3.96l2.28,3.96h-4.56l-2.28,3.96l-2.28,-3.96h-4.56Z" style="opacity: 1; stroke-width: 1.5px; fill: rgb(166, 216, 84); fill-opacity: 1; stroke: rgb(0, 0, 0); stroke-opacity: 1;"/></g></g></g><rect class="legendtoggle" pointer-events="all" x="0" y="-10.6" width="152" height="21.2" style="cursor: pointer; fill: rgb(0, 0, 0); fill-opacity: 0;"/></g><g class="traces" transform="translate(0, 121.6)" style="opacity: 1;"><text class="legendtext user-select-none" text-anchor="start" x="40" y="5.46" style="font-family: 'Open Sans', verdana, arial, sans-serif; font-size: 14px; fill: rgb(42, 63, 95); fill-opacity: 1; white-space: pre;">8 Targets</text><g class="layers"><g class="legendfill"/><g class="legendlines"><path class="js-line" d="M5,0h30" style="fill: none; stroke: rgb(255, 217, 47); stroke-opacity: 1; stroke-width: 3px;"/></g><g class="legendsymbols"><g class="legendpoints"><path class="scatterpts" transform="translate(20,0)" d="M-4.56,0l-2.28,-3.96h4.56l2.28,-3.96l2.28,3.96h4.56l-2.28,3.96l2.28,3.96h-4.56l-2.28,3.96l-2.28,-3.96h-4.56Z" style="opacity: 1; stroke-width: 1.5px; fill: rgb(255, 217, 47); fill-opacity: 1; stroke: rgb(0, 0, 0); stroke-opacity: 1;"/></g></g></g><rect class="legendtoggle" pointer-events="all" x="0" y="-10.6" width="152" height="21.2" style="cursor: pointer; fill: rgb(0, 0, 0); fill-opacity: 0;"/></g></g></g><rect class="scrollbar" rx="20" ry="3" width="0" height="0" x="0" y="0" style="fill: rgb(128, 139, 164); fill-opacity: 1;"/></g><g class="g-gtitle"/><g class="g-xtitle"><text class="xtitle" x="275" y="432" text-anchor="middle" style="font-family: 'Open Sans', verdana, arial, sans-serif; font-size: 17px; fill: rgb(0, 0, 0); opacity: 1; font-weight: normal; white-space: pre;">Speed (deg/sec)</text></g><g class="g-ytitle"><text class="ytitle" transform="rotate(-90,85,260)" x="85" y="260" text-anchor="middle" style="font-family: 'Open Sans', verdana, arial, sans-serif; font-size: 17px; fill: rgb(0, 0, 0); opacity: 1; font-weight: normal; white-space: pre;">Avg. human accuracy</text></g></g></svg>